# xmcd CD database file
#
# Track frame offsets:
#	150
#	16608
#	31553
#	58236
#	83333
#	107243
#	123441
#	152741
#	170128
#	202233
#	220058
#	244076
#	260453
#
# Disc length: 3714 seconds
#
# Revision: 2
# Processed by: cddbd v1.5.2PL0 Copyright (c) Steve Scherf et al.
# Submitted via: CDex 1.70beta2
#
DISCID=a90e800d
DTITLE=東京ブラススタイル - アニジャズジブリ Final Note
DYEAR=2011
DGENRE=Jazz
TTITLE0=さんぽ
TTITLE1=ねこバス
TTITLE2=人生のメリーゴーランド
TTITLE3=君をのせて
TTITLE4=もののけ姫
TTITLE5=となりのトトロ
TTITLE6=風の谷のナウシカ
TTITLE7=鳩と少年
TTITLE8=風のとおり道
TTITLE9=風になる
TTITLE10=あの夏へ
TTITLE11=ルージュの伝言 [スタジオライブテイク]
TTITLE12=となりのトトロ [スタジオライブテイク]
EXTD=YEAR: 2011
EXTT0=
EXTT1=
EXTT2=
EXTT3=
EXTT4=
EXTT5=
EXTT6=
EXTT7=
EXTT8=
EXTT9=
EXTT10=
EXTT11=
EXTT12=
PLAYORDER=
